<svg width="41" height="26" viewBox="0 0 41 26" fill="none" xmlns="http://www.w3.org/2000/svg">
<g clip-path="url(#clip0_2898_3261)">
<path d="M25.0869 14.718C25.0869 18.3251 25.0869 21.9108 25.0869 25.5031C23.4759 25.5031 21.8811 25.5031 20.2766 25.5031C20.2766 17.007 20.2766 8.51587 20.2766 0.0132087C20.3223 0.00991757 20.3663 0.00333529 20.4103 0.00333529C22.2317 0.00333529 24.0531 -0.00489256 25.8761 0.00662643C26.5675 0.0115631 27.2605 0.0477657 27.9519 0.0938416C28.8063 0.151437 29.6542 0.258399 30.4858 0.473968C32.0431 0.877133 33.2416 1.7822 34.1188 3.13321C34.6814 3.99878 35.0206 4.94992 35.1771 5.97182C35.2864 6.68106 35.3124 7.39359 35.2619 8.10777C35.1804 9.23827 34.9032 10.3095 34.3096 11.2837C33.7568 12.1904 33.0019 12.8832 32.1001 13.423C31.6322 13.7027 31.1381 13.9298 30.6293 14.1256C30.5869 14.1421 30.5445 14.1585 30.494 14.1799C32.4833 17.9516 34.4694 21.7183 36.4653 25.5014C36.3952 25.5047 36.3462 25.508 36.2973 25.508C34.6504 25.508 33.0035 25.5064 31.355 25.5113C31.2343 25.5113 31.1756 25.4735 31.1202 25.3665C29.2808 21.8713 27.4382 18.3778 25.5957 14.8842C25.5842 14.8612 25.5696 14.8398 25.5598 14.8151C25.5304 14.7361 25.4766 14.7081 25.3918 14.7147C25.2989 14.723 25.2076 14.718 25.0869 14.718ZM25.0951 9.97384C25.1684 9.97384 25.2255 9.97384 25.2809 9.97384C25.7375 9.97384 26.1941 9.9722 26.6507 9.97384C27.2409 9.97713 27.8296 9.94587 28.4133 9.84549C28.7672 9.7846 29.1145 9.69739 29.4423 9.5427C29.9217 9.31726 30.2543 8.95359 30.4353 8.45333C30.6032 7.98764 30.6391 7.50713 30.5902 7.01511C30.4907 6.00802 29.7651 5.17042 28.7721 4.93017C28.2454 4.80346 27.7073 4.76726 27.1708 4.75245C26.5251 4.73599 25.8777 4.74422 25.2304 4.74258C25.1864 4.74258 25.1423 4.74916 25.0967 4.75245C25.0951 6.49675 25.0951 8.2246 25.0951 9.97384Z" fill="#0D1118"/>
<path d="M18.8498 25.5295C17.3171 25.5295 15.8055 25.5295 14.2695 25.5295C14.2678 24.8992 14.2695 24.2739 14.2695 23.6404C14.1977 23.647 14.1684 23.698 14.1308 23.7342C13.5194 24.2986 12.8622 24.8005 12.1236 25.1872C11.4648 25.5328 10.7669 25.7615 10.0331 25.8849C9.33523 26.0034 8.6357 26.0297 7.93291 25.9672C6.44906 25.8356 5.09891 25.3287 3.90368 24.4286C2.3334 23.2454 1.18708 21.7414 0.542995 19.8622C0.290251 19.1249 0.136974 18.368 0.060335 17.5913C-0.0146729 16.8475 -0.0179341 16.102 0.0375065 15.3582C0.166325 13.6584 0.614742 12.0605 1.55071 10.6256C2.44918 9.24987 3.60854 8.16051 5.09239 7.44304C5.8229 7.08924 6.59255 6.87038 7.39644 6.76506C8.00466 6.68443 8.61287 6.66304 9.22272 6.71405C10.6055 6.83089 11.8676 7.29 13.0057 8.09468C13.415 8.3843 13.7949 8.70684 14.152 9.05899C14.1798 9.08696 14.2107 9.11329 14.2368 9.13798C14.2499 9.13304 14.2548 9.13304 14.2597 9.12975C14.2629 9.12646 14.2646 9.12152 14.2662 9.11658C14.2678 9.10671 14.2711 9.09684 14.2711 9.08532C14.2727 6.08709 14.2743 3.08886 14.276 0.0889883C14.276 0.0840516 14.2809 0.0791149 14.2825 0.0758238C14.3869 0.0396212 18.6183 0.0281022 18.8515 0.0643048C18.8498 8.54722 18.8498 17.0334 18.8498 25.5295ZM9.44122 21.771C9.94671 21.7595 10.387 21.7266 10.8142 21.6081C12.3307 21.1918 13.3775 20.2275 14.0151 18.7958C14.2809 18.2001 14.4064 17.5682 14.4553 16.9182C14.5189 16.0905 14.4749 15.271 14.2287 14.4746C13.7525 12.931 12.7791 11.8416 11.274 11.2641C10.5337 10.9794 9.76082 10.9168 8.97324 10.986C8.46286 11.032 7.97041 11.1406 7.50569 11.3578C6.12946 11.9996 5.24404 13.0742 4.80866 14.5289C4.58853 15.2644 4.53472 16.0214 4.58201 16.7866C4.62441 17.4646 4.75649 18.1195 5.02227 18.7432C5.67615 20.267 7.18446 21.7825 9.44122 21.771Z" fill="#0D1118"/>
<path d="M41 23.3705C41.0147 24.5471 40.0249 25.5179 38.8639 25.513C37.8089 25.5081 36.7474 24.6557 36.749 23.3606C36.7507 22.11 37.7665 21.2098 38.8884 21.2181C40.0901 21.2279 41.0212 22.2367 41 23.3705ZM40.5614 23.3672C40.5728 22.523 39.9124 21.6706 38.8835 21.664C37.8905 21.6574 37.1877 22.4687 37.1893 23.3672C37.1909 24.3052 37.9426 25.0704 38.8672 25.0736C39.8015 25.0753 40.5614 24.3101 40.5614 23.3672Z" fill="#0D1118"/>
<path d="M39.9449 24.4417C39.7378 24.4417 39.5438 24.4417 39.3399 24.4417C39.2796 24.3216 39.2193 24.1965 39.1573 24.0731C39.1231 24.004 39.0905 23.9333 39.0562 23.8641C38.9307 23.6222 38.8214 23.5679 38.5295 23.6124C38.5295 23.8806 38.5295 24.1538 38.5295 24.4368C38.3322 24.4368 38.1512 24.4368 37.9686 24.4368C37.936 24.3331 37.9246 22.4703 37.9539 22.2136C37.9621 22.2071 37.9702 22.1955 37.9784 22.1972C38.3567 22.2038 38.7366 22.2087 39.1149 22.2186C39.1606 22.2202 39.2046 22.235 39.2503 22.2482C39.6351 22.3584 39.8112 22.8011 39.5927 23.1401C39.5258 23.2438 39.4133 23.3145 39.3171 23.405C39.5275 23.5169 39.6171 23.7457 39.7248 23.9612C39.7851 24.0814 39.8438 24.2015 39.9009 24.3233C39.9155 24.3562 39.927 24.394 39.9449 24.4417ZM38.5312 23.1829C38.6078 23.1829 38.673 23.1829 38.7382 23.1829C38.7839 23.1829 38.8312 23.1845 38.8752 23.1779C39.0122 23.1582 39.0774 23.0809 39.0856 22.9393C39.097 22.7616 39.0513 22.6826 38.9111 22.6415C38.7872 22.6053 38.6616 22.6184 38.5312 22.63C38.5312 22.811 38.5312 22.9838 38.5312 23.1829Z" fill="#0D1118"/>
</g>
<defs>
<clipPath id="clip0_2898_3261">
<rect width="41" height="26" fill="white"/>
</clipPath>
</defs>
</svg>
