<svg width="30" height="30" viewBox="0 0 30 30" fill="none" xmlns="http://www.w3.org/2000/svg">
<path d="M25.7315 13.191L15.7006 4.05092C15.2604 3.64968 14.5964 3.64972 14.1563 4.05088L4.12544 13.191C3.77275 13.5124 3.65625 14.0076 3.82856 14.4525C4.00091 14.8974 4.42053 15.1848 4.89767 15.1848H6.49977V24.3425C6.49977 24.7056 6.79417 25 7.15725 25H12.6554C13.0185 25 13.3129 24.7056 13.3129 24.3425V18.7822H16.5442V24.3425C16.5442 24.7056 16.8386 25 17.2017 25H22.6996C23.0627 25 23.3571 24.7057 23.3571 24.3425V15.1848H24.9595C25.4365 15.1848 25.8562 14.8973 26.0286 14.4525C26.2007 14.0075 26.0842 13.5124 25.7315 13.191Z" fill="#3969A9"/>
<path d="M25.7315 13.191L15.7006 4.05092C15.2604 3.64968 14.5964 3.64972 14.1563 4.05088L4.12544 13.191C3.77275 13.5124 3.65625 14.0076 3.82856 14.4525C4.00091 14.8974 4.42053 15.1848 4.89767 15.1848H6.49977V24.3425C6.49977 24.7056 6.79417 25 7.15725 25H12.6554C13.0185 25 13.3129 24.7056 13.3129 24.3425V18.7822H16.5442V24.3425C16.5442 24.7056 16.8386 25 17.2017 25H22.6996C23.0627 25 23.3571 24.7057 23.3571 24.3425V15.1848H24.9595C25.4365 15.1848 25.8562 14.8973 26.0286 14.4525C26.2007 14.0075 26.0842 13.5124 25.7315 13.191Z" fill="url(#paint0_linear_3432_251)"/>
<path d="M23.1852 5.06238H18.7698L23.8427 9.67506V5.71981C23.8427 5.35673 23.5483 5.06238 23.1852 5.06238Z" fill="#3969A9"/>
<path d="M23.1852 5.06238H18.7698L23.8427 9.67506V5.71981C23.8427 5.35673 23.5483 5.06238 23.1852 5.06238Z" fill="url(#paint1_linear_3432_251)"/>
<defs>
<linearGradient id="paint0_linear_3432_251" x1="5.29186" y1="5.03233" x2="21.9814" y2="25.8358" gradientUnits="userSpaceOnUse">
<stop stop-color="#FA6CAD"/>
<stop offset="1" stop-color="#8266F6"/>
</linearGradient>
<linearGradient id="paint1_linear_3432_251" x1="19.1196" y1="5.34073" x2="22.7044" y2="10.0117" gradientUnits="userSpaceOnUse">
<stop stop-color="#FA6CAD"/>
<stop offset="1" stop-color="#8266F6"/>
</linearGradient>
</defs>
</svg>
