<svg width="30" height="30" viewBox="0 0 30 30" fill="none" xmlns="http://www.w3.org/2000/svg">
<path d="M21.2791 10.6686H28.1977V7.45639C28.1977 5.41267 26.535 3.75 24.4913 3.75H6.20639C4.16267 3.75 2.5 5.41267 2.5 7.45639V21.2936C2.5 23.3373 4.16267 25 6.20639 25H24.4913C26.535 25 28.1977 23.3373 28.1977 21.2936V18.0814H21.2791C19.2354 18.0814 17.5727 16.4187 17.5727 14.375C17.5727 12.3313 19.2354 10.6686 21.2791 10.6686Z" fill="#0BB378"/>
<path d="M21.2791 10.6686H28.1977V7.45639C28.1977 5.41267 26.535 3.75 24.4913 3.75H6.20639C4.16267 3.75 2.5 5.41267 2.5 7.45639V21.2936C2.5 23.3373 4.16267 25 6.20639 25H24.4913C26.535 25 28.1977 23.3373 28.1977 21.2936V18.0814H21.2791C19.2354 18.0814 17.5727 16.4187 17.5727 14.375C17.5727 12.3313 19.2354 10.6686 21.2791 10.6686Z" fill="url(#paint0_linear_3432_275)"/>
<path d="M21.279 12.1512C20.0528 12.1512 19.0552 13.1488 19.0552 14.375C19.0552 15.6013 20.0528 16.5989 21.279 16.5989H28.1976V12.1512H21.279V12.1512ZM22.2674 15.1163H21.279C20.8696 15.1163 20.5378 14.7844 20.5378 14.375C20.5378 13.9657 20.8697 13.6338 21.279 13.6338H22.2674C22.6768 13.6338 23.0087 13.9657 23.0087 14.375C23.0087 14.7844 22.6768 15.1163 22.2674 15.1163Z" fill="#0BB378"/>
<path d="M21.279 12.1512C20.0528 12.1512 19.0552 13.1488 19.0552 14.375C19.0552 15.6013 20.0528 16.5989 21.279 16.5989H28.1976V12.1512H21.279V12.1512ZM22.2674 15.1163H21.279C20.8696 15.1163 20.5378 14.7844 20.5378 14.375C20.5378 13.9657 20.8697 13.6338 21.279 13.6338H22.2674C22.6768 13.6338 23.0087 13.9657 23.0087 14.375C23.0087 14.7844 22.6768 15.1163 22.2674 15.1163Z" fill="url(#paint1_linear_3432_275)"/>
<defs>
<linearGradient id="paint0_linear_3432_275" x1="4.27226" y1="5.03233" x2="20.3197" y2="28.0246" gradientUnits="userSpaceOnUse">
<stop stop-color="#3497FC"/>
<stop offset="1" stop-color="#393F8C"/>
</linearGradient>
<linearGradient id="paint1_linear_3432_275" x1="19.6857" y1="12.4196" x2="22.2003" y2="18.5437" gradientUnits="userSpaceOnUse">
<stop stop-color="#3497FC"/>
<stop offset="1" stop-color="#393F8C"/>
</linearGradient>
</defs>
</svg>
