<svg width="30" height="30" viewBox="0 0 30 30" fill="none" xmlns="http://www.w3.org/2000/svg">
<path d="M6.875 8.75C6.37772 8.75 5.90081 8.55246 5.54917 8.20083C5.19754 7.84919 5 7.37228 5 6.875C5 6.37772 5.19754 5.90081 5.54917 5.54917C5.90081 5.19754 6.37772 5 6.875 5C7.37228 5 7.84919 5.19754 8.20083 5.54917C8.55246 5.90081 8.75 6.37772 8.75 6.875C8.75 7.37228 8.55246 7.84919 8.20083 8.20083C7.84919 8.55246 7.37228 8.75 6.875 8.75ZM26.7625 14.475L15.5125 3.225C15.0625 2.775 14.4375 2.5 13.75 2.5H5C3.6125 2.5 2.5 3.6125 2.5 5V13.75C2.5 14.4375 2.775 15.0625 3.2375 15.5125L14.475 26.7625C14.9375 27.2125 15.5625 27.5 16.25 27.5C16.9375 27.5 17.5625 27.2125 18.0125 26.7625L26.7625 18.0125C27.225 17.5625 27.5 16.9375 27.5 16.25C27.5 15.55 27.2125 14.925 26.7625 14.475Z" fill="#DD8382"/>
<path d="M6.875 8.75C6.37772 8.75 5.90081 8.55246 5.54917 8.20083C5.19754 7.84919 5 7.37228 5 6.875C5 6.37772 5.19754 5.90081 5.54917 5.54917C5.90081 5.19754 6.37772 5 6.875 5C7.37228 5 7.84919 5.19754 8.20083 5.54917C8.55246 5.90081 8.75 6.37772 8.75 6.875C8.75 7.37228 8.55246 7.84919 8.20083 8.20083C7.84919 8.55246 7.37228 8.75 6.875 8.75ZM26.7625 14.475L15.5125 3.225C15.0625 2.775 14.4375 2.5 13.75 2.5H5C3.6125 2.5 2.5 3.6125 2.5 5V13.75C2.5 14.4375 2.775 15.0625 3.2375 15.5125L14.475 26.7625C14.9375 27.2125 15.5625 27.5 16.25 27.5C16.9375 27.5 17.5625 27.2125 18.0125 26.7625L26.7625 18.0125C27.225 17.5625 27.5 16.9375 27.5 16.25C27.5 15.55 27.2125 14.925 26.7625 14.475Z" fill="url(#paint0_linear_3432_259)"/>
<defs>
<linearGradient id="paint0_linear_3432_259" x1="4.22414" y1="4.00862" x2="24.0517" y2="27.5" gradientUnits="userSpaceOnUse">
<stop stop-color="#FFCD1B"/>
<stop offset="1" stop-color="#FF8B1B"/>
</linearGradient>
</defs>
</svg>
