<svg width="26" height="26" viewBox="0 0 26 26" fill="none" xmlns="http://www.w3.org/2000/svg">
<rect x="0.5" y="0.5" width="25" height="25" rx="12.5" fill="#0092B9"/>
<path d="M13 12.7334L14.6667 14.4C14.7889 14.5222 14.85 14.6778 14.85 14.8667C14.85 15.0556 14.7889 15.2111 14.6667 15.3334C14.5445 15.4556 14.3889 15.5167 14.2 15.5167C14.0112 15.5167 13.8556 15.4556 13.7334 15.3334L11.8667 13.4667C11.8 13.4 11.75 13.3251 11.7167 13.242C11.6834 13.1589 11.6667 13.0727 11.6667 12.9834V10.3334C11.6667 10.1445 11.7307 9.98602 11.8587 9.85802C11.9867 9.73002 12.1449 9.66624 12.3334 9.66669C12.5223 9.66669 12.6807 9.73069 12.8087 9.85869C12.9367 9.98669 13.0005 10.1449 13 10.3334V12.7334ZM17 9.00002H15.6667C15.4778 9.00002 15.3194 8.93624 15.1914 8.80869C15.0634 8.68113 14.9996 8.52269 15 8.33336C15 8.14447 15.064 7.98602 15.192 7.85802C15.32 7.73002 15.4783 7.66624 15.6667 7.66669H17V6.33336C17 6.14447 17.064 5.98602 17.192 5.85802C17.32 5.73002 17.4783 5.66624 17.6667 5.66669C17.8556 5.66669 18.014 5.73069 18.142 5.85869C18.27 5.98669 18.3338 6.14491 18.3334 6.33336V7.66669H19.6667C19.8556 7.66669 20.014 7.73069 20.142 7.85869C20.27 7.98669 20.3338 8.14491 20.3334 8.33336C20.3334 8.52224 20.2694 8.68069 20.1414 8.80869C20.0134 8.93669 19.8552 9.00047 19.6667 9.00002H18.3334V10.3334C18.3334 10.5222 18.2694 10.6807 18.1414 10.8087C18.0134 10.9367 17.8552 11.0005 17.6667 11C17.4778 11 17.3194 10.936 17.1914 10.808C17.0634 10.68 16.9996 10.5218 17 10.3334V9.00002ZM12.3334 19C11.5 19 10.7194 18.8445 9.99137 18.5334C9.26337 18.2222 8.62737 17.7945 8.08337 17.25C7.53893 16.7056 7.11115 16.0694 6.80004 15.3414C6.48893 14.6134 6.33337 13.8329 6.33337 13C6.33337 12.1667 6.48893 11.386 6.80004 10.658C7.11115 9.93002 7.53893 9.29402 8.08337 8.75002C8.62782 8.20558 9.26404 7.7778 9.99204 7.46669C10.72 7.15558 11.5005 7.00002 12.3334 7.00002C12.4556 7.00002 12.5696 7.00291 12.6754 7.00869C12.7812 7.01447 12.8949 7.02824 13.0167 7.05002C13.2056 7.05002 13.364 7.11402 13.492 7.24202C13.62 7.37002 13.6838 7.52824 13.6834 7.71669C13.6834 7.90558 13.6194 8.06402 13.4914 8.19202C13.3634 8.32002 13.2052 8.3838 13.0167 8.38336C12.8945 8.38336 12.7805 8.37491 12.6747 8.35802C12.5689 8.34113 12.4552 8.33291 12.3334 8.33336C11.0223 8.33336 9.91671 8.78336 9.01671 9.68336C8.11671 10.5834 7.66671 11.6889 7.66671 13C7.66671 14.3111 8.11671 15.4167 9.01671 16.3167C9.91671 17.2167 11.0223 17.6667 12.3334 17.6667C13.6445 17.6667 14.75 17.2167 15.65 16.3167C16.55 15.4167 17 14.3111 17 13C17 12.8111 17.064 12.6527 17.192 12.5247C17.32 12.3967 17.4783 12.3329 17.6667 12.3334C17.8556 12.3334 18.014 12.3974 18.142 12.5254C18.27 12.6534 18.3338 12.8116 18.3334 13C18.3334 13.8334 18.1778 14.614 17.8667 15.342C17.5556 16.07 17.1278 16.706 16.5834 17.25C16.0389 17.7945 15.4027 18.2222 14.6747 18.5334C13.9467 18.8445 13.1663 19 12.3334 19Z" fill="white"/>
<rect x="0.5" y="0.5" width="25" height="25" rx="12.5" stroke="white"/>
</svg>
