<svg width="30" height="30" viewBox="0 0 30 30" fill="none" xmlns="http://www.w3.org/2000/svg">
<path d="M13.75 17.5C15 17.5 16.3125 17.7 17.75 18.05C16.7375 19.1375 16.25 20.4125 16.25 21.875C16.25 22.9875 16.5625 24.0375 17.225 25H3.75V22.5C3.75 21.0125 4.8875 19.8125 7.175 18.9C9.4625 17.975 11.6625 17.5 13.75 17.5ZM13.75 15C12.4 15 11.25 14.5125 10.225 13.5375C9.225 12.5625 8.75 11.3875 8.75 10C8.75 8.65 9.225 7.5 10.225 6.475C11.25 5.475 12.4 5 13.75 5C15.1375 5 16.3125 5.475 17.2875 6.475C18.2625 7.5 18.75 8.65 18.75 10C18.75 11.3875 18.2625 12.5625 17.2875 13.5375C16.3125 14.5125 15.1375 15 13.75 15ZM23.125 12.5H27.5V15H25V21.875C25 22.7038 24.6708 23.4987 24.0847 24.0847C23.4987 24.6708 22.7038 25 21.875 25C21.0462 25 20.2513 24.6708 19.6653 24.0847C19.0792 23.4987 18.75 22.7038 18.75 21.875C18.75 21.0462 19.0792 20.2513 19.6653 19.6653C20.2513 19.0792 21.0462 18.75 21.875 18.75C22.325 18.75 22.7375 18.8375 23.125 19.0125V12.5Z" fill="#EB6779"/>
<path d="M13.75 17.5C15 17.5 16.3125 17.7 17.75 18.05C16.7375 19.1375 16.25 20.4125 16.25 21.875C16.25 22.9875 16.5625 24.0375 17.225 25H3.75V22.5C3.75 21.0125 4.8875 19.8125 7.175 18.9C9.4625 17.975 11.6625 17.5 13.75 17.5ZM13.75 15C12.4 15 11.25 14.5125 10.225 13.5375C9.225 12.5625 8.75 11.3875 8.75 10C8.75 8.65 9.225 7.5 10.225 6.475C11.25 5.475 12.4 5 13.75 5C15.1375 5 16.3125 5.475 17.2875 6.475C18.2625 7.5 18.75 8.65 18.75 10C18.75 11.3875 18.2625 12.5625 17.2875 13.5375C16.3125 14.5125 15.1375 15 13.75 15ZM23.125 12.5H27.5V15H25V21.875C25 22.7038 24.6708 23.4987 24.0847 24.0847C23.4987 24.6708 22.7038 25 21.875 25C21.0462 25 20.2513 24.6708 19.6653 24.0847C19.0792 23.4987 18.75 22.7038 18.75 21.875C18.75 21.0462 19.0792 20.2513 19.6653 19.6653C20.2513 19.0792 21.0462 18.75 21.875 18.75C22.325 18.75 22.7375 18.8375 23.125 19.0125V12.5Z" fill="url(#paint0_linear_3432_269)"/>
<defs>
<linearGradient id="paint0_linear_3432_269" x1="5.38793" y1="6.2069" x2="20.5843" y2="27.5871" gradientUnits="userSpaceOnUse">
<stop stop-color="#FF9797"/>
<stop offset="1" stop-color="#F651A0"/>
</linearGradient>
</defs>
</svg>
