<svg width="35" height="35" viewBox="0 0 35 35" fill="none" xmlns="http://www.w3.org/2000/svg">
<rect width="35" height="35" rx="17.5" fill="#57B948"/>
<g clip-path="url(#clip0_3113_3073)">
<path d="M11.799 11.7292C12.1756 13.0437 12.5575 14.3104 12.8881 15.5909C12.9525 15.838 12.8542 16.1477 12.7663 16.4069C12.6889 16.6383 12.5636 16.8863 12.3862 17.0446C12.0138 17.3787 12.0913 17.7101 12.2739 18.0868C13.3257 20.2521 14.9221 21.8519 17.1517 22.7984C17.3944 22.9019 17.5797 22.8845 17.792 22.7027C18.0199 22.5078 18.2913 22.3556 18.561 22.2182C18.8786 22.0563 19.2144 22.0189 19.571 22.1242C20.7263 22.4643 21.886 22.7897 23.043 23.122C23.1039 23.1394 23.1622 23.1681 23.2526 23.2038C23.1526 23.8258 23.0543 24.4443 22.9534 25.0629C22.8977 25.4056 22.8194 25.7458 22.7872 26.0911C22.7602 26.3808 22.655 26.487 22.3479 26.4957C19.5589 26.574 17.0221 25.7841 14.7315 24.2303C11.7807 22.2269 9.78069 19.5187 8.8629 16.0476C8.56016 14.9054 8.44881 13.7397 8.50796 12.56C8.51318 12.4513 8.60974 12.2686 8.68804 12.2538C9.71109 12.0668 10.7385 11.9032 11.799 11.7292Z" fill="white"/>
<path d="M26.5025 8.5C26.5025 10.192 26.5025 11.8432 26.5025 13.4952C26.5025 14.3321 26.4885 15.1699 26.5068 16.0059C26.5181 16.5217 26.3006 16.8923 25.87 17.1307C25.1836 17.51 24.4607 17.5587 23.7395 17.2429C23.2863 17.0446 22.9688 16.7097 22.9618 16.1755C22.954 15.6527 23.2602 15.3325 23.6917 15.1107C24.2102 14.8436 24.7513 14.8254 25.322 15.0263C25.322 13.7153 25.322 12.4365 25.322 11.1142C25.0836 11.1942 24.8626 11.2673 24.6434 11.343C23.6499 11.6883 22.6591 12.0433 21.6612 12.3756C21.4533 12.4443 21.4029 12.5426 21.4037 12.7453C21.4116 14.3217 21.4081 15.898 21.4081 17.4743C21.4081 18.4382 21.0627 18.8784 20.111 19.0803C19.5438 19.2003 18.9862 19.1655 18.472 18.8575C17.6595 18.3704 17.6464 17.396 18.4468 16.8941C18.9975 16.5496 19.5873 16.5122 20.2424 16.7288C20.2424 16.5713 20.2424 16.4461 20.2424 16.3199C20.2424 14.5157 20.2432 12.7114 20.2406 10.9063C20.2406 10.7331 20.2476 10.6087 20.4572 10.5383C22.4216 9.87973 24.3815 9.209 26.3424 8.54263C26.3833 8.52784 26.425 8.52001 26.5025 8.5Z" fill="white"/>
</g>
<defs>
<clipPath id="clip0_3113_3073">
<rect width="18.0157" height="18" fill="white" transform="translate(8.49219 8.5)"/>
</clipPath>
</defs>
</svg>
