<svg width="26" height="26" viewBox="0 0 26 26" fill="none" xmlns="http://www.w3.org/2000/svg">
<rect x="0.5" y="0.5" width="25" height="25" rx="12.5" fill="#57B948"/>
<g clip-path="url(#clip0_2337_4311)">
<path d="M17.572 8.38195C17.4802 8.32238 17.3776 8.28147 17.2699 8.26157C17.1623 8.24167 17.0519 8.24317 16.9448 8.26597C16.8378 8.28877 16.7363 8.33244 16.6462 8.39447C16.556 8.45651 16.479 8.53569 16.4195 8.62751L11.75 15.825L9.4728 13.7195C9.39246 13.6452 9.29827 13.5874 9.19562 13.5495C9.09296 13.5117 8.98385 13.4944 8.8745 13.4986C8.65368 13.5073 8.44534 13.6033 8.2953 13.7656C8.14527 13.9278 8.06584 14.143 8.07449 14.3639C8.08314 14.5847 8.17915 14.793 8.34142 14.9431L11.3314 17.7075C11.3314 17.7075 11.4172 17.7814 11.457 17.8072C11.5488 17.8668 11.6514 17.9078 11.7591 17.9277C11.8667 17.9476 11.9772 17.9462 12.0842 17.9234C12.1913 17.9005 12.2928 17.8569 12.383 17.7948C12.4732 17.7327 12.5502 17.6535 12.6097 17.5617L17.8175 9.53445C17.8771 9.44266 17.918 9.34003 17.9379 9.23243C17.9578 9.12483 17.9563 9.01436 17.9335 8.90733C17.9107 8.80031 17.867 8.69882 17.805 8.60868C17.743 8.51853 17.6638 8.44149 17.572 8.38195Z" fill="white"/>
</g>
<rect x="0.5" y="0.5" width="25" height="25" rx="12.5" stroke="white"/>
<defs>
<clipPath id="clip0_2337_4311">
<rect width="10" height="10" fill="white" transform="translate(8 8)"/>
</clipPath>
</defs>
</svg>
