<svg width="30" height="30" viewBox="0 0 30 30" fill="none" xmlns="http://www.w3.org/2000/svg">
<path d="M23.4 18.45C23.8375 17.3875 24.075 16.25 24.075 15C24.075 14.1 23.9375 13.2375 23.7 12.4375C22.8875 12.625 22.0375 12.725 21.15 12.725C19.3325 12.7269 17.5411 12.2919 15.9269 11.4565C14.3127 10.6211 12.923 9.40994 11.875 7.92499C10.7539 10.6377 8.63891 12.8197 5.9625 14.025C5.9125 14.3375 5.9125 14.675 5.9125 15C5.9125 16.1934 6.14756 17.3751 6.60424 18.4776C7.06093 19.5802 7.73031 20.582 8.57417 21.4258C10.2784 23.1301 12.5898 24.0875 15 24.0875C16.3125 24.0875 17.575 23.8 18.7125 23.2875C19.425 24.65 19.75 25.325 19.725 25.325C17.675 26.0125 16.0875 26.35 15 26.35C11.975 26.35 9.0875 25.1625 6.9625 23.025C5.67 21.7365 4.70921 20.1537 4.1625 18.4125H2.5V12.725H3.8625C4.2753 10.7156 5.22437 8.85551 6.60899 7.34198C7.99361 5.82846 9.76213 4.718 11.7269 4.12844C13.6917 3.53888 15.7794 3.49221 17.7686 3.99338C19.7577 4.49455 21.5741 5.52486 23.025 6.97499C24.6003 8.54406 25.6748 10.5451 26.1125 12.725H27.5V18.4125H27.425L22.975 22.5L16.35 21.75V19.6625H22.3875L23.4 18.45ZM11.5875 14.7125C11.9625 14.7125 12.325 14.8625 12.5875 15.1375C12.8513 15.4035 12.9993 15.7629 12.9993 16.1375C12.9993 16.5121 12.8513 16.8715 12.5875 17.1375C12.325 17.4 11.9625 17.55 11.5875 17.55C10.8 17.55 10.1625 16.925 10.1625 16.1375C10.1625 15.35 10.8 14.7125 11.5875 14.7125ZM18.4 14.7125C19.1875 14.7125 19.8125 15.35 19.8125 16.1375C19.8125 16.925 19.1875 17.55 18.4 17.55C17.6125 17.55 16.975 16.925 16.975 16.1375C16.975 15.7596 17.1251 15.3971 17.3924 15.1299C17.6596 14.8626 18.0221 14.7125 18.4 14.7125Z" fill="#1B1D4E"/>
<path d="M23.4 18.45C23.8375 17.3875 24.075 16.25 24.075 15C24.075 14.1 23.9375 13.2375 23.7 12.4375C22.8875 12.625 22.0375 12.725 21.15 12.725C19.3325 12.7269 17.5411 12.2919 15.9269 11.4565C14.3127 10.6211 12.923 9.40994 11.875 7.92499C10.7539 10.6377 8.63891 12.8197 5.9625 14.025C5.9125 14.3375 5.9125 14.675 5.9125 15C5.9125 16.1934 6.14756 17.3751 6.60424 18.4776C7.06093 19.5802 7.73031 20.582 8.57417 21.4258C10.2784 23.1301 12.5898 24.0875 15 24.0875C16.3125 24.0875 17.575 23.8 18.7125 23.2875C19.425 24.65 19.75 25.325 19.725 25.325C17.675 26.0125 16.0875 26.35 15 26.35C11.975 26.35 9.0875 25.1625 6.9625 23.025C5.67 21.7365 4.70921 20.1537 4.1625 18.4125H2.5V12.725H3.8625C4.2753 10.7156 5.22437 8.85551 6.60899 7.34198C7.99361 5.82846 9.76213 4.718 11.7269 4.12844C13.6917 3.53888 15.7794 3.49221 17.7686 3.99338C19.7577 4.49455 21.5741 5.52486 23.025 6.97499C24.6003 8.54406 25.6748 10.5451 26.1125 12.725H27.5V18.4125H27.425L22.975 22.5L16.35 21.75V19.6625H22.3875L23.4 18.45ZM11.5875 14.7125C11.9625 14.7125 12.325 14.8625 12.5875 15.1375C12.8513 15.4035 12.9993 15.7629 12.9993 16.1375C12.9993 16.5121 12.8513 16.8715 12.5875 17.1375C12.325 17.4 11.9625 17.55 11.5875 17.55C10.8 17.55 10.1625 16.925 10.1625 16.1375C10.1625 15.35 10.8 14.7125 11.5875 14.7125ZM18.4 14.7125C19.1875 14.7125 19.8125 15.35 19.8125 16.1375C19.8125 16.925 19.1875 17.55 18.4 17.55C17.6125 17.55 16.975 16.925 16.975 16.1375C16.975 15.7596 17.1251 15.3971 17.3924 15.1299C17.6596 14.8626 18.0221 14.7125 18.4 14.7125Z" fill="url(#paint0_linear_3432_283)"/>
<defs>
<linearGradient id="paint0_linear_3432_283" x1="4.22414" y1="5.01893" x2="21.86" y2="28.0298" gradientUnits="userSpaceOnUse">
<stop stop-color="#FFCAA4"/>
<stop offset="1" stop-color="#EF5262"/>
</linearGradient>
</defs>
</svg>
