<svg width="120" height="120" viewBox="0 0 120 120" fill="none" xmlns="http://www.w3.org/2000/svg">
<path d="M62.8111 60.3446C62.7904 60.3221 62.7828 60.3033 62.7696 60.2846L61.8209 59.2927C61.3016 58.7433 60.6097 58.4714 59.9178 58.4752C59.2258 58.4696 58.5377 58.7433 58.0089 59.2926L57.0603 60.2844C57.0416 60.3032 57.0377 60.3258 57.0209 60.3446L43.4853 75.3146C42.4372 76.4096 42.4372 78.1814 43.4853 79.2802L44.4303 79.9213C45.4786 81.0163 47.1772 80.6619 48.2234 79.5669L56.2054 70.6683V108.453C56.2054 110.523 57.8854 112.203 59.9554 112.203C62.0254 112.203 63.7054 110.523 63.7054 108.453V70.7038L71.9517 79.8012C72.9998 80.8962 74.6948 81.2507 75.7411 80.1557L76.6861 79.5144C77.7343 78.4157 77.7343 76.6438 76.6861 75.5488L62.8111 60.3446Z" fill="#FFCC40"/>
<path d="M89.4166 30.465C84.1873 16.5863 72.9449 7.79614 55.963 7.79614C34.3555 7.79614 19.2374 23.8405 17.9381 44.773C7.52051 48.1049 0 58.7324 0 70.7699C0 85.5055 11.5837 97.9536 25.2918 97.9536H36.1255C38.1955 97.9536 39.8755 96.2736 39.8755 94.2036C39.8755 92.1318 38.1955 90.4536 36.1255 90.4536H25.2918C15.6468 90.4536 7.38176 81.4405 7.38176 70.7699C7.38176 61.3405 13.993 52.8336 22.2861 51.4086L25.6893 50.8218L25.3874 47.3849L25.3593 47.3418C25.3593 29.0755 37.3799 15.298 55.963 15.298C70.858 15.298 79.2262 22.6368 83.0962 35.1543L83.8986 37.7361L86.6005 37.7943C100.532 38.0868 112.745 49.3894 112.745 63.4314C112.745 76.2113 104.276 90.4538 91.453 90.4538H82.8843C80.8143 90.4538 79.1343 92.1338 79.1343 94.2038C79.1343 96.2756 80.8143 97.9538 82.8843 97.9538L91.4249 97.9426C110.175 97.4476 119.942 79.5359 119.942 63.4315C119.942 46.1215 106.376 32.2894 89.4166 30.465Z" fill="#783EFD"/>
</svg>
