<svg width="30" height="30" viewBox="0 0 30 30" fill="none" xmlns="http://www.w3.org/2000/svg">
<g clip-path="url(#clip0_3432_271)">
<path fill-rule="evenodd" clip-rule="evenodd" d="M15 5C16.0688 5 17.165 5.0275 18.2275 5.0725L19.4825 5.1325L20.6838 5.20375L21.8088 5.28L22.8362 5.36C23.9513 5.44535 25.0006 5.92118 25.7994 6.7038C26.5983 7.48642 27.0955 8.52567 27.2038 9.63875L27.2537 10.17L27.3475 11.3075C27.435 12.4862 27.5 13.7713 27.5 15C27.5 16.2287 27.435 17.5138 27.3475 18.6925L27.2537 19.83C27.2375 20.0125 27.2213 20.1887 27.2038 20.3612C27.0955 21.4745 26.598 22.5139 25.7989 23.2966C24.9998 24.0792 23.9503 24.5549 22.835 24.64L21.81 24.7187L20.685 24.7962L19.4825 24.8675L18.2275 24.9275C17.1523 24.9742 16.0762 24.9984 15 25C13.9238 24.9984 12.8477 24.9742 11.7725 24.9275L10.5175 24.8675L9.31625 24.7962L8.19125 24.7187L7.16375 24.64C6.04869 24.5547 4.99944 24.0788 4.20059 23.2962C3.40174 22.5136 2.90447 21.4743 2.79625 20.3612L2.74625 19.83L2.6525 18.6925C2.55692 17.4639 2.50606 16.2323 2.5 15C2.5 13.7713 2.565 12.4862 2.6525 11.3075L2.74625 10.17C2.7625 9.9875 2.77875 9.81125 2.79625 9.63875C2.90443 8.52587 3.40152 7.48677 4.20011 6.70418C4.99871 5.92159 6.04766 5.44563 7.1625 5.36L8.18875 5.28L9.31375 5.20375L10.5163 5.1325L11.7712 5.0725C12.8469 5.02579 13.9234 5.00162 15 5ZM12.5 11.9687V18.0313C12.5 18.6088 13.125 18.9687 13.625 18.6812L18.875 15.65C18.9892 15.5842 19.0841 15.4895 19.1501 15.3754C19.2161 15.2613 19.2508 15.1318 19.2508 15C19.2508 14.8682 19.2161 14.7387 19.1501 14.6246C19.0841 14.5105 18.9892 14.4158 18.875 14.35L13.625 11.32C13.5109 11.2542 13.3816 11.2195 13.2499 11.2195C13.1182 11.2195 12.9888 11.2542 12.8748 11.3201C12.7608 11.386 12.6661 11.4808 12.6003 11.5948C12.5345 11.7089 12.4999 11.8383 12.5 11.97V11.9687Z" fill="#FD0807"/>
<path fill-rule="evenodd" clip-rule="evenodd" d="M15 5C16.0688 5 17.165 5.0275 18.2275 5.0725L19.4825 5.1325L20.6838 5.20375L21.8088 5.28L22.8362 5.36C23.9513 5.44535 25.0006 5.92118 25.7994 6.7038C26.5983 7.48642 27.0955 8.52567 27.2038 9.63875L27.2537 10.17L27.3475 11.3075C27.435 12.4862 27.5 13.7713 27.5 15C27.5 16.2287 27.435 17.5138 27.3475 18.6925L27.2537 19.83C27.2375 20.0125 27.2213 20.1887 27.2038 20.3612C27.0955 21.4745 26.598 22.5139 25.7989 23.2966C24.9998 24.0792 23.9503 24.5549 22.835 24.64L21.81 24.7187L20.685 24.7962L19.4825 24.8675L18.2275 24.9275C17.1523 24.9742 16.0762 24.9984 15 25C13.9238 24.9984 12.8477 24.9742 11.7725 24.9275L10.5175 24.8675L9.31625 24.7962L8.19125 24.7187L7.16375 24.64C6.04869 24.5547 4.99944 24.0788 4.20059 23.2962C3.40174 22.5136 2.90447 21.4743 2.79625 20.3612L2.74625 19.83L2.6525 18.6925C2.55692 17.4639 2.50606 16.2323 2.5 15C2.5 13.7713 2.565 12.4862 2.6525 11.3075L2.74625 10.17C2.7625 9.9875 2.77875 9.81125 2.79625 9.63875C2.90443 8.52587 3.40152 7.48677 4.20011 6.70418C4.99871 5.92159 6.04766 5.44563 7.1625 5.36L8.18875 5.28L9.31375 5.20375L10.5163 5.1325L11.7712 5.0725C12.8469 5.02579 13.9234 5.00162 15 5ZM12.5 11.9687V18.0313C12.5 18.6088 13.125 18.9687 13.625 18.6812L18.875 15.65C18.9892 15.5842 19.0841 15.4895 19.1501 15.3754C19.2161 15.2613 19.2508 15.1318 19.2508 15C19.2508 14.8682 19.2161 14.7387 19.1501 14.6246C19.0841 14.5105 18.9892 14.4158 18.875 14.35L13.625 11.32C13.5109 11.2542 13.3816 11.2195 13.2499 11.2195C13.1182 11.2195 12.9888 11.2542 12.8748 11.3201C12.7608 11.386 12.6661 11.4808 12.6003 11.5948C12.5345 11.7089 12.4999 11.8383 12.5 11.97V11.9687Z" fill="url(#paint0_linear_3432_271)"/>
</g>
<defs>
<linearGradient id="paint0_linear_3432_271" x1="4.22414" y1="6.2069" x2="19.1491" y2="28.3104" gradientUnits="userSpaceOnUse">
<stop stop-color="#EA0A51"/>
<stop offset="1" stop-color="#800160"/>
</linearGradient>
<clipPath id="clip0_3432_271">
<rect width="30" height="30" fill="white"/>
</clipPath>
</defs>
</svg>
